<?xml version="1.0" standalone="no"?>
<!DOCTYPE svg PUBLIC "-//W3C//DTD SVG 20010904//EN"
 "http://www.w3.org/TR/2001/REC-SVG-20010904/DTD/svg10.dtd">
<svg version="1.0" xmlns="http://www.w3.org/2000/svg"
 width="1954.000000pt" height="2048.000000pt" viewBox="0 0 1954.000000 2048.000000"
 preserveAspectRatio="xMidYMid meet">
<metadata>
Created by potrace 1.16, written by Peter Selinger 2001-2019
</metadata>
<g transform="translate(0.000000,2048.000000) scale(0.100000,-0.100000)"
fill="#000000" stroke="none">
<path d="M8940 19480 c-531 -33 -976 -108 -1555 -260 -837 -221 -1681 -625
-2421 -1161 -538 -389 -1015 -840 -1470 -1389 -103 -123 -318 -412 -425 -570
-310 -455 -577 -974 -808 -1570 -172 -443 -283 -838 -376 -1341 -73 -399 -95
-585 -116 -1004 -23 -460 11 -1142 76 -1515 33 -187 126 -630 160 -759 167
-626 412 -1238 718 -1791 145 -262 372 -613 557 -861 38 -52 70 -99 70 -106 0
-22 -143 -377 -270 -668 -35 -79 -206 -496 -365 -890 -64 -157 -250 -604 -275
-660 -10 -22 -48 -116 -85 -208 -36 -92 -110 -272 -164 -400 -55 -127 -138
-329 -186 -447 -48 -118 -116 -282 -152 -365 -86 -199 -213 -518 -209 -523 5
-5 206 66 416 148 96 37 276 105 400 150 329 120 1173 433 1322 491 l47 18
102 -202 c132 -263 345 -681 472 -927 229 -442 313 -606 420 -817 101 -201
127 -244 127 -213 0 6 32 86 71 178 87 203 97 229 192 462 118 292 331 809
412 1000 40 96 121 292 179 435 58 143 144 352 191 465 47 113 127 309 177
435 50 127 93 232 95 234 2 2 31 -8 65 -23 325 -145 877 -334 1185 -406 70
-17 153 -37 183 -45 127 -33 530 -101 795 -134 819 -104 1662 -68 2475 105
475 101 927 245 1403 446 92 39 169 69 171 67 2 -2 50 -116 106 -254 56 -137
133 -326 172 -420 136 -329 220 -532 317 -775 55 -135 111 -272 126 -305 15
-33 58 -138 96 -233 117 -291 515 -1241 524 -1251 5 -4 145 292 230 484 8 17
64 138 126 270 61 132 122 263 134 290 13 28 37 82 55 120 18 39 56 122 85
185 289 632 354 773 359 778 3 3 129 -36 278 -87 307 -104 1896 -631 1973
-655 27 -8 51 -13 54 -11 2 3 -2 19 -9 37 -24 60 -128 302 -155 363 -37 81
-388 920 -490 1170 -96 237 -224 544 -388 935 -65 157 -166 400 -224 540 -57
140 -135 329 -173 420 -200 485 -278 677 -284 696 -5 16 4 35 37 75 247 308
655 992 846 1419 29 63 56 124 61 135 5 11 23 52 41 90 61 135 244 663 319
920 51 175 141 596 185 865 24 147 66 539 80 740 13 189 7 784 -9 975 -114
1340 -540 2583 -1257 3675 -132 201 -281 400 -485 650 -600 737 -1406 1409
-2229 1860 -348 191 -760 377 -1119 504 -300 106 -839 250 -1111 296 -93 16
-194 34 -223 39 -83 16 -351 49 -542 66 -208 19 -894 28 -1110 15z m1050 -774
c1040 -93 2004 -402 2890 -929 846 -503 1611 -1217 2163 -2019 327 -474 609
-1014 798 -1528 294 -796 432 -1560 433 -2405 1 -1256 -312 -2397 -962 -3505
-486 -828 -1205 -1598 -2012 -2156 -916 -634 -1931 -1026 -3020 -1168 -552
-72 -1164 -76 -1665 -11 -676 88 -1142 205 -1740 435 -270 104 -698 313 -957
467 -291 173 -589 383 -877 617 -194 158 -302 255 -496 450 -685 688 -1189
1452 -1540 2336 -277 697 -427 1359 -476 2103 -15 226 -6 822 15 1042 111
1140 464 2166 1074 3125 288 452 672 913 1077 1293 840 788 1793 1330 2870
1631 465 130 916 202 1500 240 136 9 760 -4 925 -18z"/>
<path d="M9140 18280 c-843 -37 -1630 -220 -2360 -550 -1125 -508 -2055 -1303
-2755 -2355 -203 -306 -437 -745 -580 -1090 -88 -211 -223 -616 -279 -835
-134 -523 -193 -965 -203 -1515 -12 -660 54 -1186 227 -1820 227 -827 664
-1677 1199 -2330 202 -246 547 -608 756 -791 320 -281 687 -543 1074 -766 260
-150 680 -347 931 -436 47 -17 117 -42 155 -56 105 -39 421 -131 606 -176 555
-134 1220 -199 1749 -171 668 36 1170 127 1758 320 638 209 1341 581 1882 996
253 194 387 312 631 555 215 214 308 317 475 525 271 339 457 616 641 955 413
764 654 1522 747 2355 42 378 54 873 27 1190 -101 1235 -494 2314 -1205 3314
-434 611 -1081 1233 -1701 1636 -919 599 -1942 950 -2998 1029 -259 20 -553
26 -777 16z m810 -155 c851 -78 1618 -303 2350 -690 542 -285 1002 -616 1414
-1014 446 -433 736 -792 1053 -1301 381 -613 688 -1403 818 -2105 126 -685
146 -1333 59 -1990 -73 -554 -163 -915 -354 -1430 -92 -248 -295 -682 -400
-855 -15 -25 -55 -92 -89 -150 -210 -355 -476 -712 -757 -1015 -175 -189 -220
-234 -469 -464 -144 -134 -309 -264 -549 -434 -671 -475 -1444 -822 -2221
-995 -477 -107 -799 -148 -1260 -159 -711 -17 -1439 92 -2115 316 -198 66
-442 158 -545 206 -27 13 -97 44 -155 70 -89 40 -251 124 -425 220 -167 92
-433 264 -615 398 -1063 777 -1830 1826 -2269 3101 -61 178 -152 512 -191 701
-195 951 -177 1881 56 2810 92 366 178 623 325 969 316 739 793 1438 1368
2005 333 328 577 528 956 783 698 472 1545 811 2375 952 191 33 548 75 730 86
199 12 710 4 910 -15z"/>
<path d="M9415 17322 c-33 -20 -95 -87 -95 -102 0 -6 -5 -10 -11 -10 -7 0 -10
21 -7 58 l3 57 -65 0 -65 0 -3 -412 -2 -413 70 0 c38 0 70 3 70 8 6 551 8 573
81 645 38 39 40 39 97 34 31 -3 66 -8 78 -12 18 -6 24 1 42 50 12 31 22 60 22
65 0 15 -99 50 -142 50 -24 0 -56 -8 -73 -18z"/>
<path d="M9979 17263 c-107 -35 -201 -141 -238 -268 -90 -306 38 -535 321
-575 120 -18 203 1 280 61 35 29 108 123 108 141 0 4 -32 17 -71 28 -59 18
-73 19 -80 8 -5 -7 -9 -16 -9 -19 0 -21 -81 -81 -126 -96 -104 -33 -219 18
-268 119 -26 54 -46 171 -30 181 11 6 250 -24 451 -57 82 -13 152 -21 156 -17
10 10 11 196 2 236 -16 64 -69 147 -123 191 -94 77 -257 106 -373 67z m209
-108 c91 -27 152 -116 152 -222 0 -18 -4 -33 -9 -33 -21 0 -436 62 -440 66 -2
2 1 22 8 44 25 85 120 156 212 159 14 1 49 -6 77 -14z"/>
<path d="M8054 17230 c-191 -28 -315 -119 -343 -251 -18 -81 -19 -79 58 -79
l69 0 6 44 c14 88 78 144 192 165 58 11 128 -1 158 -27 23 -21 55 -89 56 -119
0 -28 -41 -50 -183 -99 -184 -65 -254 -111 -299 -198 -28 -52 -28 -126 -1
-187 41 -93 120 -139 237 -139 120 0 227 46 309 134 36 38 39 40 50 22 38 -60
38 -60 113 -46 38 8 71 15 73 16 2 2 -8 17 -23 34 -31 38 -45 83 -91 298 -63
295 -78 338 -134 385 -51 43 -149 61 -247 47z m230 -417 c4 -9 10 -51 13 -93
5 -64 2 -82 -17 -123 -39 -84 -131 -140 -230 -141 -95 -1 -153 46 -152 124 1
74 47 115 179 163 40 15 98 40 130 56 69 36 69 36 77 14z"/>
<path d="M10953 17070 c-112 -26 -209 -111 -267 -234 -45 -95 -60 -166 -54
-268 7 -141 65 -231 190 -294 75 -38 176 -44 243 -15 26 12 50 20 52 18 10
-11 -56 -167 -86 -201 -65 -74 -242 -62 -332 23 -34 33 -39 44 -39 83 l0 44
-60 29 c-33 16 -63 25 -67 21 -4 -4 -9 -35 -11 -70 -3 -47 1 -73 14 -101 65
-138 325 -235 493 -184 61 18 132 86 173 166 30 56 278 798 278 828 0 12 -117
48 -130 40 -4 -3 -11 -23 -15 -45 l-7 -40 -37 57 c-73 114 -214 173 -338 143z
m175 -134 c101 -53 145 -191 107 -335 -22 -86 -48 -134 -96 -181 -112 -109
-270 -87 -335 46 -24 49 -26 62 -22 142 6 104 33 181 89 252 21 27 56 58 77
69 45 24 140 28 180 7z"/>
<path d="M11862 17015 c-18 -36 -32 -69 -32 -74 0 -5 12 -14 28 -19 15 -6 44
-17 65 -26 l38 -17 34 73 34 73 -52 27 c-29 15 -59 27 -67 28 -10 0 -29 -26
-48 -65z"/>
<path d="M7130 16955 c-234 -52 -354 -222 -271 -383 56 -109 141 -130 396 -96
168 22 203 11 225 -67 8 -28 6 -42 -13 -79 -18 -37 -33 -51 -84 -77 -120 -61
-217 -51 -270 28 l-25 38 -59 -30 c-32 -16 -59 -35 -59 -41 0 -42 95 -129 161
-148 152 -44 389 53 463 190 52 95 31 230 -45 294 -59 50 -146 57 -344 30
-131 -18 -176 -13 -211 21 -50 50 -19 132 66 175 95 48 179 44 236 -11 l33
-32 52 30 c29 16 54 34 56 40 6 17 -45 71 -91 97 -54 32 -133 39 -216 21z"/>
<path d="M11755 16767 c-7 -12 -49 -98 -93 -192 -43 -93 -116 -249 -161 -345
-44 -96 -81 -180 -81 -186 0 -11 118 -70 125 -62 1 1 30 62 63 133 33 72 110
238 171 369 61 132 111 244 111 248 0 4 -5 8 -10 8 -6 0 -33 11 -60 24 l-51
24 -14 -21z"/>
<path d="M6305 16546 c-331 -82 -407 -462 -147 -725 80 -81 154 -119 247 -128
159 -15 342 91 409 236 16 36 21 65 21 133 0 47 -3 90 -8 94 -4 4 -35 -4 -70
-18 l-62 -26 -5 -75 c-7 -87 -36 -141 -98 -181 -81 -53 -168 -54 -255 -3 -44
26 -107 94 -107 115 0 6 30 29 68 50 146 84 438 253 451 261 30 19 -122 196
-204 239 -40 20 -123 42 -160 41 -16 0 -52 -6 -80 -13z m150 -136 c22 -11 58
-37 79 -59 l38 -39 -73 -42 c-41 -24 -129 -76 -197 -116 -68 -41 -127 -74
-131 -74 -17 0 -35 65 -35 126 0 52 5 71 30 111 62 100 189 141 289 93z"/>
<path d="M12165 16531 c-108 -28 -175 -112 -175 -219 0 -75 28 -121 158 -257
52 -55 104 -119 114 -142 17 -38 17 -46 4 -77 -40 -97 -192 -83 -293 27 -23
25 -46 61 -51 80 -9 34 -3 91 12 115 8 14 -113 77 -124 65 -16 -18 -30 -79
-30 -133 0 -114 83 -221 229 -293 70 -35 96 -42 155 -45 113 -6 195 39 241
131 54 109 26 182 -135 352 -129 137 -149 169 -130 214 27 66 102 78 192 31
93 -48 140 -120 119 -182 -6 -17 -10 -32 -9 -34 10 -8 120 -65 122 -62 17 19
26 57 26 110 0 51 -6 72 -30 114 -74 129 -278 235 -395 205z"/>
<path d="M13006 16184 c-25 -33 -52 -68 -60 -79 -11 -15 -19 -17 -29 -10 -8 6
-26 19 -41 29 -27 19 -27 19 -52 -5 -50 -46 -51 -60 -9 -96 l37 -32 -168 -211
c-189 -237 -214 -275 -214 -338 0 -54 18 -89 70 -136 39 -35 106 -74 113 -65
2 2 16 26 31 52 l28 48 -46 43 c-25 23 -46 49 -46 57 0 8 12 32 27 54 26 39
238 306 294 372 l28 32 53 -44 53 -44 32 37 c18 20 32 42 33 48 0 6 -22 30
-49 53 l-50 41 85 111 c46 61 84 115 84 120 0 5 -15 9 -34 9 -18 0 -54 3 -79
6 l-45 6 -46 -58z"/>
<path d="M5685 16140 c-88 -42 -115 -86 -115 -190 l0 -75 -44 49 -43 50 -51
-43 -50 -43 270 -324 270 -324 27 19 c14 11 39 33 54 49 l29 30 -160 191 c-88
105 -171 212 -183 239 -30 60 -32 144 -5 185 19 29 83 67 111 67 18 0 18 6 4
51 -32 100 -40 105 -114 69z"/>
<path d="M9065 15979 c-624 -54 -1202 -235 -1741 -544 -602 -347 -1136 -873
-1498 -1480 -404 -676 -602 -1438 -583 -2245 15 -628 159 -1205 441 -1757 212
-415 469 -760 832 -1113 687 -668 1598 -1081 2560 -1161 188 -15 679 -6 834
15 471 66 915 202 1325 408 222 111 270 138 430 243 251 166 417 299 634 510
413 403 669 771 928 1335 61 134 150 391 191 555 93 367 130 627 139 981 24
947 -282 1885 -863 2644 -146 191 -377 435 -570 602 -669 579 -1505 932 -2389
1008 -140 12 -526 11 -670 -1z m2740 -2114 l0 -50 -2432 -3 -2433 -2 0 55 0
55 2433 -2 2432 -3 0 -50z m-5494 -1134 c163 -51 268 -167 305 -339 7 -37 14
-120 14 -184 l0 -118 -195 0 -195 0 0 118 c0 64 -5 134 -10 154 -15 52 -52 78
-110 78 -57 0 -94 -31 -110 -91 -7 -25 -10 -205 -8 -506 3 -425 5 -471 21
-500 48 -89 180 -79 206 14 6 21 11 104 11 186 l0 147 195 0 195 0 0 -153 c0
-217 -32 -327 -126 -427 -93 -100 -202 -141 -374 -141 -265 0 -429 117 -496
356 -14 50 -18 123 -21 455 -4 514 6 619 72 749 76 150 260 237 476 226 47 -2
114 -13 150 -24z m1217 -16 c80 -19 137 -48 185 -94 83 -78 112 -181 105 -373
-4 -108 -8 -130 -32 -180 -28 -58 -82 -114 -138 -141 l-31 -15 39 -20 c52 -27
97 -75 131 -142 l28 -55 5 -310 c5 -264 8 -316 23 -349 9 -21 17 -40 17 -42 0
-3 -89 -3 -197 -2 l-198 3 -17 50 c-14 42 -17 92 -18 312 0 291 -6 324 -60
357 -17 9 -61 20 -100 23 l-70 6 0 -377 0 -376 -195 0 -195 0 0 870 0 870 328
0 c253 0 341 -4 390 -15z m1342 -150 l0 -165 -240 0 -240 0 0 -170 0 -170 210
0 210 0 0 -170 0 -170 -210 0 -210 0 0 -195 0 -195 250 0 250 0 0 -170 0 -170
-445 0 -445 0 0 870 0 870 435 0 435 0 0 -165z m928 118 c16 -73 86 -438 137
-713 58 -309 185 -947 192 -966 4 -12 -28 -14 -200 -14 -187 0 -206 2 -211 18
-2 9 -12 69 -21 132 -9 63 -18 125 -21 138 -4 22 -7 22 -144 22 -77 0 -140 -4
-140 -8 0 -15 -30 -247 -36 -274 l-6 -28 -194 0 c-126 0 -194 4 -194 10 0 6
13 79 30 163 16 83 47 251 69 372 22 121 60 330 84 465 25 135 64 354 88 488
l43 242 257 0 257 0 10 -47z m1795 28 c246 -63 327 -204 314 -546 -6 -164 -19
-227 -65 -308 -76 -136 -207 -186 -494 -187 l-78 0 0 -340 0 -340 -190 0 -190
0 0 870 0 870 313 0 c278 0 323 -2 390 -19z m1208 1 c189 -53 266 -159 277
-379 5 -123 -7 -213 -39 -276 -24 -47 -89 -110 -129 -127 -37 -15 -38 -26 -4
-34 14 -4 50 -30 78 -59 85 -85 88 -101 96 -457 4 -197 11 -315 18 -333 25
-58 29 -57 -177 -57 l-189 0 -18 43 c-16 36 -19 81 -24 327 -4 250 -7 289 -23
313 -24 38 -67 57 -142 64 l-65 6 0 -377 0 -376 -195 0 -195 0 0 870 0 870
333 0 c291 0 341 -2 398 -18z m-2071 -997 l0 -165 -275 0 -275 0 0 165 0 165
275 0 275 0 0 -165z m1068 -1657 l3 -58 -2431 0 -2430 0 0 53 c0 30 3 57 7 60
3 4 1096 6 2427 5 l2421 -3 3 -57z m3 -325 c1 -10 2 -36 2 -58 l2 -40 -2432
-3 -2433 -2 0 60 0 60 2430 0 c2307 0 2430 -1 2431 -17z"/>
<path d="M7205 12432 c-3 -3 -5 -92 -5 -199 l0 -193 66 0 c132 0 168 43 168
200 0 107 -15 150 -62 173 -28 15 -157 29 -167 19z"/>
<path d="M9531 12390 c-1 -8 -19 -157 -41 -330 -22 -173 -43 -343 -47 -377
l-6 -63 97 0 c80 0 96 3 96 16 0 8 -13 119 -30 247 -16 128 -34 288 -41 357
-11 110 -26 194 -28 150z"/>
<path d="M11272 12208 l3 -213 77 -3 c142 -5 172 32 172 213 0 93 -3 116 -20
145 -28 50 -74 70 -162 70 l-72 0 2 -212z"/>
<path d="M12460 12240 l0 -202 79 3 c122 6 155 46 155 194 1 148 -31 187 -161
200 l-73 7 0 -202z"/>
<path d="M13059 15487 c-135 -138 -262 -271 -283 -294 l-37 -42 44 -45 c24
-25 48 -46 53 -46 5 0 88 79 184 176 186 186 230 220 301 230 75 10 128 -24
175 -114 1 -2 116 47 122 53 2 2 -6 26 -19 54 -23 55 -74 107 -115 117 -26 7
-101 1 -144 -12 -21 -6 -18 1 23 43 l48 50 -45 41 c-25 23 -49 42 -53 42 -5 0
-118 -114 -254 -253z"/>
<path d="M5119 15550 c-60 -10 -121 -42 -177 -93 -62 -57 -92 -124 -92 -207
l0 -64 -38 37 -38 37 -43 -44 c-24 -24 -42 -49 -40 -54 11 -29 820 -781 842
-782 4 -1 29 22 55 51 l46 51 -24 20 c-14 11 -83 72 -153 136 l-128 116 67 13
c100 18 173 73 222 168 24 44 27 61 27 150 0 91 -3 106 -31 165 -90 189 -320
328 -495 300z m159 -159 c70 -36 181 -148 214 -216 52 -111 29 -218 -60 -280
-40 -27 -51 -30 -120 -30 -96 1 -140 22 -233 112 -120 116 -154 221 -107 325
24 52 58 86 109 108 39 16 149 6 197 -19z"/>
<path d="M13637 15186 c-70 -19 -73 -25 -35 -90 29 -50 36 -56 58 -51 80 18
119 17 154 -4 107 -66 168 -211 119 -281 -24 -35 -55 -59 -74 -60 -23 0 -116
71 -216 163 -86 80 -130 107 -201 127 -99 26 -210 -31 -258 -134 -50 -107 -21
-210 90 -322 62 -62 169 -124 213 -124 28 0 29 -6 3 -45 -11 -16 -20 -36 -20
-43 0 -7 19 -38 41 -68 l42 -55 39 61 c38 58 100 114 248 225 221 165 253 204
253 311 0 55 -6 77 -38 140 -89 181 -272 290 -418 250z m-126 -373 c21 -15 83
-63 139 -105 55 -42 106 -79 113 -82 18 -8 -49 -64 -113 -94 -130 -61 -268 -6
-331 132 -23 50 -24 78 -4 117 38 72 124 86 196 32z"/>
<path d="M4415 14766 c-115 -53 -184 -195 -156 -321 7 -30 17 -57 22 -60 22
-14 8 -31 -21 -27 -74 11 -187 -74 -230 -172 -28 -62 -34 -141 -17 -198 8 -27
13 -48 10 -48 -2 0 -21 11 -41 25 -20 14 -40 25 -44 25 -8 0 -55 -69 -64 -95
-4 -8 21 -28 68 -56 67 -39 230 -134 529 -311 64 -37 121 -68 127 -68 11 0 72
93 72 109 0 5 -96 67 -212 137 -117 70 -234 142 -260 161 -81 59 -108 152 -69
239 31 68 109 112 169 95 36 -11 127 -57 177 -90 65 -44 352 -211 361 -211 5
0 24 27 42 60 l33 59 -23 15 c-13 8 -113 67 -223 131 -207 121 -267 167 -291
222 -46 107 32 253 136 253 47 0 87 -21 353 -184 115 -70 214 -125 220 -123
13 6 74 114 66 120 -45 33 -516 305 -551 319 -65 24 -123 23 -183 -6z"/>
<path d="M14116 14369 c-130 -32 -303 -165 -357 -274 -30 -61 -31 -69 -27
-152 8 -153 77 -250 214 -303 l49 -18 -42 -17 c-24 -10 -43 -23 -43 -30 0 -14
49 -105 56 -105 6 0 334 179 349 190 6 4 111 60 235 125 124 65 269 142 322
172 l98 54 -30 60 c-17 32 -35 59 -41 59 -6 0 -85 -41 -176 -91 -91 -50 -167
-89 -169 -87 -2 2 1 22 7 44 34 123 -50 288 -179 351 -45 22 -71 27 -141 30
-47 1 -103 -2 -125 -8z m232 -158 c135 -69 140 -249 12 -365 -24 -21 -77 -54
-119 -74 -199 -95 -370 -22 -373 157 -1 70 27 126 90 183 125 113 284 153 390
99z"/>
<path d="M14615 13480 c-2 -4 1 -34 8 -68 10 -55 14 -62 39 -67 16 -3 41 -8
58 -11 44 -8 104 -82 124 -152 20 -73 20 -101 0 -152 -13 -32 -26 -45 -70 -66
-30 -14 -60 -24 -68 -21 -8 3 -53 82 -100 174 -46 92 -101 187 -120 209 -122
143 -349 94 -402 -85 -38 -129 35 -309 163 -401 l52 -37 -37 -24 c-45 -30 -49
-50 -21 -123 l21 -58 32 30 c40 40 86 59 318 132 210 66 258 84 302 113 85 58
90 261 10 420 -61 121 -131 175 -240 186 -36 4 -67 4 -69 1z m-222 -244 c21
-12 69 -90 117 -186 18 -36 43 -79 56 -97 13 -17 24 -36 24 -41 0 -5 -38 -19
-84 -30 -61 -16 -91 -19 -115 -12 -143 41 -238 227 -168 331 36 54 113 70 170
35z"/>
<path d="M3882 13436 c-68 -17 -155 -77 -194 -134 -68 -99 -87 -249 -46 -359
42 -114 185 -221 344 -259 90 -21 212 -15 276 13 186 84 286 360 193 532 -29
53 -120 144 -137 139 -5 -2 -22 -32 -38 -68 l-28 -64 40 -35 c98 -84 102 -200
11 -301 -58 -64 -108 -83 -207 -78 -41 2 -77 5 -79 8 -3 3 34 133 83 290 48
157 86 288 84 291 -16 27 -227 44 -302 25z m144 -139 c7 -6 -113 -406 -126
-420 -10 -12 -102 54 -127 92 -36 53 -46 104 -33 166 23 112 118 181 234 170
27 -2 50 -6 52 -8z"/>
<path d="M5313 9257 c-84 -56 -245 -162 -358 -236 -113 -74 -205 -139 -205
-145 0 -6 13 -28 29 -48 l28 -38 164 105 163 106 18 -23 c37 -50 81 -130 87
-161 12 -53 -6 -114 -75 -267 -36 -80 -68 -154 -71 -165 -4 -19 53 -134 67
-135 3 0 36 68 73 151 70 156 97 238 97 298 l0 35 38 -36 c53 -51 92 -68 157
-68 96 0 193 66 231 156 36 87 15 145 -128 356 -46 68 -96 144 -111 171 -16
26 -33 47 -40 46 -7 -1 -81 -47 -164 -102z m224 -149 c92 -135 113 -177 113
-232 0 -52 -34 -100 -87 -122 -89 -38 -143 -3 -252 161 -44 67 -81 128 -83
135 -2 10 213 157 233 159 3 1 38 -45 76 -101z"/>
<path d="M13594 9170 c-60 -94 -126 -196 -146 -228 -20 -31 -37 -60 -37 -63
-1 -4 17 -18 39 -33 l40 -27 84 128 c45 71 95 150 111 176 15 27 31 45 35 40
4 -4 17 -37 30 -73 33 -95 100 -223 170 -328 65 -98 223 -272 246 -272 13 0
64 59 64 74 0 4 -40 47 -89 96 -145 144 -278 369 -350 592 -11 34 -61 88 -81
88 -4 0 -57 -77 -116 -170z"/>
<path d="M13285 8718 c-54 -20 -115 -71 -148 -122 -28 -46 -32 -59 -32 -126 0
-62 5 -84 27 -125 14 -28 33 -49 41 -49 8 1 30 14 50 29 l34 28 -27 41 c-41
61 -45 93 -18 146 29 57 98 96 153 86 71 -14 124 -89 111 -159 -3 -18 -19 -52
-35 -76 -29 -43 -29 -44 -10 -60 10 -9 25 -25 33 -35 13 -19 14 -18 37 16 84
128 243 110 303 -34 21 -50 20 -91 -3 -136 -50 -98 -131 -123 -232 -71 l-37
18 -31 -47 -30 -47 46 -24 c139 -70 309 -6 379 144 66 140 -3 318 -143 368
-59 21 -102 22 -148 3 l-35 -15 0 52 c0 114 -79 195 -197 203 -32 2 -71 -1
-88 -8z"/>
<path d="M5595 8462 c-76 -32 -102 -51 -162 -116 -79 -84 -107 -154 -99 -245
9 -103 87 -209 189 -257 69 -32 162 -30 216 5 20 13 -35 105 -58 95 -9 -4 -41
-10 -71 -12 -45 -3 -61 1 -90 20 -100 68 -115 196 -34 294 l24 29 56 -60 c31
-33 100 -111 155 -172 55 -62 104 -113 108 -113 18 0 103 103 122 147 63 146
7 302 -132 372 -73 36 -158 41 -224 13z m189 -102 c55 -26 96 -90 96 -147 0
-43 -29 -115 -52 -129 -12 -7 -91 71 -195 193 -51 59 -50 68 10 90 48 17 96
15 141 -7z"/>
<path d="M12838 8273 l-27 -28 43 -342 c42 -335 43 -342 72 -376 16 -20 32
-35 36 -34 4 1 62 49 129 107 68 58 131 111 140 118 16 11 27 4 91 -63 l73
-75 37 34 36 35 -70 81 -70 82 33 28 c19 16 37 29 42 30 16 0 5 26 -25 57
l-31 32 -39 -34 c-21 -19 -42 -35 -47 -35 -11 0 -169 169 -286 308 -47 56 -92
102 -99 102 -7 0 -24 -12 -38 -27z m250 -361 c45 -51 82 -96 82 -101 0 -12
-176 -171 -189 -171 -5 0 -12 30 -15 68 -4 37 -18 138 -32 225 -13 88 -24 162
-24 165 1 7 38 -32 178 -186z"/>
<path d="M6050 7983 c-73 -35 -164 -127 -197 -199 -33 -72 -42 -173 -20 -225
36 -86 118 -146 214 -156 l54 -6 -38 -39 c-59 -62 -117 -92 -163 -85 -88 12
-184 119 -160 181 8 23 5 32 -24 71 -37 48 -40 47 -70 -12 -22 -44 -20 -89 8
-148 44 -95 167 -183 267 -193 36 -3 59 1 101 21 62 30 74 40 154 132 96 109
354 427 354 435 0 8 -65 60 -75 60 -4 0 -15 -10 -26 -22 l-18 -23 -1 25 c0 14
-11 48 -24 76 -57 122 -206 169 -336 107z m218 -100 c63 -47 83 -141 47 -216
-25 -54 -101 -134 -149 -159 -55 -29 -135 -30 -173 -2 -16 12 -39 36 -51 55
-47 68 -13 179 83 275 29 29 68 57 86 63 50 15 126 7 157 -16z"/>
<path d="M12343 7865 c-17 -12 -21 -27 -25 -102 -3 -76 -9 -99 -40 -163 l-36
-74 29 -43 c17 -24 32 -43 34 -43 8 0 67 122 84 174 l17 48 95 -133 c102 -143
208 -291 272 -377 l39 -53 36 27 c20 15 39 29 40 30 4 3 -14 29 -238 344 -81
113 -173 244 -206 292 -32 49 -64 88 -69 88 -6 0 -20 -7 -32 -15z"/>
<path d="M6558 7553 c-47 -65 -126 -176 -177 -247 -51 -70 -95 -134 -97 -141
-3 -8 14 -26 39 -43 l44 -31 74 107 c42 59 123 175 182 259 59 83 107 153 107
156 0 5 -77 57 -84 57 -2 0 -42 -53 -88 -117z"/>
<path d="M11829 7526 c-131 -47 -206 -158 -180 -268 22 -96 105 -178 180 -178
l32 0 -27 -45 c-23 -40 -26 -54 -22 -120 3 -67 7 -79 43 -131 77 -111 195
-146 325 -96 110 43 178 126 187 231 13 144 -96 281 -225 281 -23 0 -42 1 -42
3 0 1 9 20 20 42 35 69 22 146 -37 215 -20 23 -55 51 -77 61 -48 22 -125 24
-177 5z m131 -101 c60 -31 91 -109 67 -166 -36 -85 -141 -119 -215 -71 -37 24
-65 89 -59 135 12 90 124 145 207 102z m219 -338 c47 -31 81 -97 81 -157 0
-91 -81 -170 -174 -170 -118 0 -215 156 -161 260 16 31 65 72 105 89 38 16
106 6 149 -22z"/>
<path d="M6790 7458 c-58 -40 -75 -72 -75 -141 0 -71 15 -98 106 -195 118
-124 129 -150 86 -190 -37 -35 -78 -38 -140 -9 -74 34 -102 75 -101 148 1 55
0 57 -33 73 -50 24 -61 20 -72 -21 -15 -51 -14 -71 4 -125 41 -118 232 -223
342 -188 61 20 94 49 120 107 40 88 26 123 -107 266 -98 105 -116 137 -100
167 25 47 81 52 151 14 60 -33 83 -66 83 -122 1 -41 3 -44 44 -62 l43 -19 9
25 c13 33 13 86 0 119 -23 60 -110 139 -179 163 -58 20 -143 15 -181 -10z"/>
<path d="M7486 7389 c-70 -11 -70 -11 -102 -83 -16 -36 -33 -66 -39 -66 -6 0
-21 7 -33 16 -26 18 -24 19 -46 -23 -21 -41 -21 -38 14 -53 17 -7 30 -16 30
-21 0 -5 -40 -91 -90 -191 -87 -179 -109 -240 -102 -286 5 -34 64 -87 117
-105 l46 -16 15 34 c18 43 18 65 0 65 -23 0 -66 41 -66 63 0 35 178 390 192
384 7 -3 30 -12 50 -21 l37 -16 16 29 c21 42 20 46 -25 66 -23 10 -43 22 -45
26 -3 3 16 50 41 104 25 53 44 98 42 99 -2 1 -25 -1 -52 -5z"/>
<path d="M7556 6968 c-113 -293 -166 -433 -166 -444 0 -10 88 -50 94 -43 1 2
26 67 56 144 62 163 109 262 138 289 12 10 40 20 64 23 34 4 50 0 79 -20 l36
-24 27 33 c34 43 33 58 -8 89 -52 39 -95 43 -152 11 -25 -14 -48 -26 -51 -26
-2 0 3 13 12 30 8 16 15 34 15 39 0 10 -62 41 -80 41 -5 0 -33 -64 -64 -142z"/>
<path d="M8745 6968 c-16 -35 -45 -99 -66 -143 -276 -590 -295 -635 -278 -646
8 -5 25 -9 40 -9 31 0 10 -41 298 589 111 244 116 260 74 261 -6 0 -18 2 -26
5 -10 4 -22 -13 -42 -57z"/>
<path d="M10524 6988 l-41 -43 17 -73 c19 -81 22 -76 -42 -96 -14 -4 -16 -12
-12 -38 9 -45 15 -49 52 -38 39 11 32 27 72 -165 57 -275 60 -287 96 -322 28
-29 39 -33 83 -33 48 0 121 21 121 35 0 3 -9 23 -20 45 -19 36 -22 39 -46 29
-32 -11 -61 -4 -73 19 -14 26 -93 413 -86 421 4 3 28 11 54 16 l47 10 -8 41
-9 41 -54 -12 c-62 -15 -54 -25 -81 100 -23 112 -23 112 -70 63z"/>
<path d="M8874 6964 c4 -9 45 -141 92 -293 47 -152 108 -347 136 -434 l52
-158 60 3 60 3 57 130 c31 72 112 253 178 404 67 150 124 284 127 298 6 24 5
24 -51 21 l-58 -3 -94 -225 c-52 -124 -120 -289 -151 -367 -31 -78 -60 -142
-64 -143 -4 0 -12 19 -18 43 -6 23 -27 96 -46 162 -69 229 -112 380 -134 465
-13 47 -25 88 -29 91 -3 4 -32 9 -65 13 -52 6 -58 5 -52 -10z"/>
<path d="M11022 6930 c-118 -42 -182 -134 -182 -259 0 -116 40 -220 117 -302
61 -65 110 -83 211 -77 64 4 89 10 133 35 63 35 114 96 130 156 34 125 -35
336 -135 412 -75 57 -177 70 -274 35z m175 -90 c78 -47 138 -184 131 -296 -6
-99 -57 -154 -151 -162 -115 -9 -198 79 -228 241 -15 78 -4 128 38 178 50 60
147 78 210 39z"/>
<path d="M8026 6916 c-129 -48 -212 -198 -204 -368 6 -133 61 -215 174 -258
74 -28 177 -24 239 8 108 56 174 187 175 347 0 162 -108 273 -275 282 -45 2
-84 -2 -109 -11z m177 -90 c78 -32 117 -120 99 -225 -24 -145 -104 -241 -199
-241 -127 0 -198 99 -174 243 17 105 67 187 136 225 28 16 99 15 138 -2z"/>
<path d="M10056 6730 c-94 -37 -145 -111 -132 -192 15 -94 73 -129 254 -158
132 -22 165 -39 170 -89 7 -66 -53 -112 -147 -114 -71 -2 -119 24 -145 77 -18
38 -19 38 -65 31 -25 -4 -48 -9 -50 -11 -8 -8 21 -78 45 -110 37 -50 97 -74
186 -74 179 0 283 75 283 205 0 117 -57 160 -257 194 -64 11 -126 25 -137 31
-33 17 -45 47 -31 79 34 84 213 93 254 13 15 -29 17 -30 57 -21 23 6 46 12 51
15 10 6 -24 73 -49 96 -56 51 -194 64 -287 28z"/>
<path d="M9694 6533 c3 -98 9 -242 13 -320 l6 -143 48 0 c26 0 50 4 53 9 6 9
-11 491 -20 579 l-5 52 -51 0 -51 0 7 -177z"/>
<path d="M11685 6612 c-22 -8 -42 -17 -44 -18 -4 -3 39 -124 44 -124 4 0 100
42 104 46 7 6 -43 114 -53 113 -6 -1 -29 -8 -51 -17z"/>
</g>
</svg>
